<?xml version="1.0" encoding="UTF-8" standalone="no"?>
<!DOCTYPE svg PUBLIC "-//W3C//DTD SVG 1.1//EN" "http://www.w3.org/Graphics/SVG/1.1/DTD/svg11.dtd">
<svg width="100%" height="100%" viewBox="0 0 75 75" version="1.1" xmlns="http://www.w3.org/2000/svg" xmlns:xlink="http://www.w3.org/1999/xlink" xml:space="preserve" xmlns:serif="http://www.serif.com/" style="fill-rule:evenodd;clip-rule:evenodd;stroke-linecap:round;stroke-linejoin:round;stroke-miterlimit:1.5;">
    <g transform="matrix(1.04893,0,0,1.04893,-1.20533,-0.628425)">
        <g>
            <g transform="matrix(1,0,0,1,-2.94336,-1.55621)">
                <path d="M74.361,5.862C74.361,4.497 73.253,3.388 71.888,3.388L7.799,3.388C6.434,3.388 5.325,4.497 5.325,5.862L5.325,69.95C5.325,71.316 6.434,72.424 7.799,72.424L71.888,72.424C73.253,72.424 74.361,71.316 74.361,69.95L74.361,5.862Z" style="fill:white;stroke:black;stroke-width:0.95px;"/>
            </g>
            <g transform="matrix(0.796355,0,0,0.796355,7.51449,1.03859)">
                <g transform="matrix(1,0,0,1,13.6,2.1)">
                    <path d="M6.6,36.2L6.6,42.4C8.2,47.9 40.2,48 40.2,53.8L40.2,47.6C40.2,41.8 8.3,41.7 6.6,36.2Z" style="fill:rgb(17,153,72);fill-rule:nonzero;"/>
                </g>
                <g transform="matrix(1,0,0,1,13.6,2.1)">
                    <path d="M6.6,14.3L6.6,20.5C8.2,25.8 38.6,26.1 40.1,31.4L40.1,25.2C38.7,19.8 8.2,19.6 6.6,14.3Z" style="fill:rgb(17,153,72);fill-rule:nonzero;"/>
                </g>
                <g transform="matrix(1,0,0,1,13.6,2.1)">
                    <path d="M6.6,36.2L6.6,42.4C8.1,37 38.6,36.8 40.1,31.4L40.1,25.2C38.6,30.6 8.2,30.8 6.6,36.2Z" style="fill:rgb(145,199,64);fill-rule:nonzero;"/>
                </g>
                <g transform="matrix(1,0,0,1,13.6,2.1)">
                    <path d="M6.6,14.3L6.6,20.5C8.2,15 40.2,14.9 40.2,9.2L40.2,3C40.2,8.7 8.2,8.8 6.6,14.3Z" style="fill:rgb(145,199,64);fill-rule:nonzero;"/>
                </g>
                <g transform="matrix(1,0,0,1,13.6,2.1)">
                    <path d="M6.4,59.3C6.4,53.3 40.2,53.4 40.2,47.5L40.2,53.7C40.2,59.6 6.4,59.6 6.4,65.5L6.4,59.3Z" style="fill:rgb(145,199,64);fill-rule:nonzero;"/>
                </g>
                <g transform="matrix(1,0,0,1,13.6,2.1)">
                    <path d="M6.4,59.3C6.4,53.3 40.2,53.4 40.2,47.5L40.2,53.7C40.2,59.6 6.4,59.6 6.4,65.5L6.4,59.3Z" style="fill:rgb(145,199,64);fill-rule:nonzero;"/>
                </g>
                <g transform="matrix(1,0,0,1,13.6,2.1)">
                    <path d="M6.4,59.3C6.4,53.3 40.2,53.4 40.2,47.5L40.2,53.7C40.2,59.6 6.4,59.6 6.4,65.5L6.4,59.3Z" style="fill:rgb(145,199,64);fill-rule:nonzero;"/>
                </g>
            </g>
            <g transform="matrix(0.310551,0,0,0.310551,2.79688,56.3146)">
                <path d="M73.53,28.22C73.53,29.55 73.26,30.72 72.73,31.72C72.2,32.72 71.47,33.57 70.54,34.24C69.61,34.92 68.53,35.44 67.31,35.79C66.08,36.14 64.78,36.32 63.39,36.32L48.2,36.32L48.2,4.88L65.03,4.88C66.12,4.88 67.11,5.12 68,5.59C68.89,6.06 69.64,6.68 70.26,7.43C70.88,8.18 71.36,9.04 71.7,10C72.04,10.96 72.21,11.93 72.21,12.9C72.21,14.44 71.83,15.88 71.06,17.22C70.29,18.56 69.17,19.56 67.69,20.21C69.49,20.74 70.92,21.69 71.96,23.07C73.01,24.44 73.53,26.16 73.53,28.22ZM54.31,10.1L54.31,18.03L62.46,18.03C63.49,18.03 64.37,17.68 65.1,16.97C65.82,16.26 66.18,15.29 66.18,14.05C66.18,12.84 65.85,11.88 65.18,11.17C64.51,10.46 63.7,10.11 62.72,10.11L54.31,10.11L54.31,10.1ZM67.38,27.07C67.38,26.51 67.28,25.97 67.09,25.45C66.9,24.93 66.64,24.48 66.31,24.1C65.98,23.72 65.6,23.41 65.16,23.19C64.72,22.97 64.23,22.86 63.7,22.86L54.31,22.86L54.31,31.14L63.39,31.14C63.95,31.14 64.47,31.04 64.96,30.83C65.45,30.62 65.87,30.34 66.22,29.97C66.57,29.6 66.85,29.17 67.06,28.66C67.27,28.16 67.38,27.63 67.38,27.07Z" style="fill:rgb(35,31,32);fill-rule:nonzero;"/>
                <path d="M103.97,36.33L103.97,15.51L95.86,31.01L92.54,31.01L84.43,15.51L84.43,36.33L78.32,36.33L78.32,4.88L84.88,4.88L94.18,22.78L103.57,4.88L110.08,4.88L110.08,36.33L103.97,36.33Z" style="fill:rgb(35,31,32);fill-rule:nonzero;"/>
                <path d="M116.64,36.34L116.64,4.88L130.55,4.88C132,4.88 133.33,5.18 134.56,5.79C135.79,6.4 136.84,7.19 137.73,8.18C138.62,9.17 139.31,10.29 139.81,11.55C140.31,12.81 140.56,14.07 140.56,15.34C140.56,17.38 140.05,19.23 139.03,20.9C138.01,22.57 136.63,23.77 134.89,24.51L142.07,36.34L135.2,36.34L128.78,25.8L122.76,25.8L122.76,36.34L116.64,36.34ZM122.75,20.43L130.41,20.43C130.97,20.43 131.49,20.3 131.98,20.03C132.47,19.76 132.89,19.4 133.24,18.94C133.59,18.48 133.87,17.94 134.08,17.32C134.29,16.7 134.39,16.04 134.39,15.33C134.39,14.59 134.27,13.91 134.04,13.29C133.8,12.67 133.49,12.13 133.09,11.67C132.69,11.21 132.23,10.86 131.72,10.61C131.2,10.36 130.68,10.23 130.15,10.23L122.75,10.23L122.75,20.43Z" style="fill:rgb(35,31,32);fill-rule:nonzero;"/>
                <path d="M171.43,28.22C171.43,29.55 171.16,30.72 170.63,31.72C170.1,32.72 169.37,33.57 168.44,34.24C167.51,34.92 166.43,35.44 165.21,35.79C163.98,36.14 162.68,36.32 161.29,36.32L146.1,36.32L146.1,4.88L162.93,4.88C164.02,4.88 165.01,5.12 165.9,5.59C166.79,6.06 167.54,6.68 168.16,7.43C168.78,8.18 169.26,9.04 169.6,10C169.94,10.96 170.11,11.93 170.11,12.9C170.11,14.44 169.73,15.88 168.96,17.22C168.19,18.56 167.07,19.56 165.59,20.21C167.39,20.74 168.82,21.69 169.86,23.07C170.91,24.44 171.43,26.16 171.43,28.22ZM152.21,10.1L152.21,18.03L160.36,18.03C161.39,18.03 162.27,17.68 163,16.97C163.72,16.26 164.08,15.29 164.08,14.05C164.08,12.84 163.75,11.88 163.08,11.17C162.41,10.46 161.6,10.11 160.62,10.11L152.21,10.11L152.21,10.1ZM165.28,27.07C165.28,26.51 165.18,25.97 164.99,25.45C164.8,24.93 164.54,24.48 164.21,24.1C163.88,23.72 163.5,23.41 163.06,23.19C162.62,22.97 162.13,22.86 161.6,22.86L152.21,22.86L152.21,31.14L161.29,31.14C161.85,31.14 162.37,31.04 162.86,30.83C163.35,30.62 163.77,30.34 164.12,29.97C164.47,29.6 164.75,29.17 164.96,28.66C165.17,28.16 165.28,27.63 165.28,27.07Z" style="fill:rgb(35,31,32);fill-rule:nonzero;"/>
            </g>
        </g>
    </g>
</svg>
